<svg xmlns="http://www.w3.org/2000/svg" version="1.1" xmlns:xlink="http://www.w3.org/1999/xlink" width="40" height="40"><svg width="40" height="40" viewBox="0 0 40 40" fill="none" xmlns="http://www.w3.org/2000/svg">
<path d="M20 0C31.0457 0 39.9999 8.95421 40 20C40 31.0459 31.0457 40 20 40C8.9543 39.9999 0 31.0458 0 20C8.24632e-05 8.95424 8.95435 5.25753e-05 20 0ZM24.6816 6.58496C20.9513 2.773 14.4934 4.62406 14.0166 10.1357C13.4214 16.4275 8.85619 13.0113 5.46484 16.5107C4.46239 17.6659 3.86527 19.2814 4.06543 20.8008C4.35857 22.914 5.99941 24.7165 8.09277 25.2275C10.4737 25.8629 12.9424 25.5824 13.748 28.5078C14.2079 30.4452 14.0501 32.2355 15.6523 33.7471C18.4496 36.38 23.5172 36.0617 25.332 32.502C25.9642 31.3881 26.0581 30.0724 26.292 28.8398C26.5292 27.5322 27.3122 26.4841 28.543 26.0381C30.2134 25.3804 32.2957 25.4971 33.833 24.417C35.4464 23.3267 36.3142 21.2439 36.0244 19.3301L36.0215 19.3096L36.0225 19.3105C35.7057 17.2422 33.9972 15.5159 32.0381 14.9053C30.8767 14.5176 29.5876 14.545 28.4531 14.0732C27.4295 13.6832 26.7349 12.8319 26.4238 11.791C25.9047 9.94326 26.134 8.10776 24.6816 6.58496ZM19.126 15.4727C23.0544 15.0457 25.7199 17.0824 25.0889 21.1914L25.084 21.2119V21.2109C24.7562 23.108 23.4449 24.3204 21.5674 24.5703C20.4297 24.7495 19.1356 24.7197 18.0146 24.4531C17.4026 24.303 16.8413 24.0578 16.3926 23.6992C14.8397 22.4017 14.5858 19.8311 15.3174 17.999C15.9439 16.4674 17.5071 15.633 19.126 15.4727Z" fill="#EA5817"></path>
</svg><style>@media (prefers-color-scheme: light) { :root { filter: none; } }
@media (prefers-color-scheme: dark) { :root { filter: none; } }
</style></svg>